<?xml version="1.0" standalone="no"?>
<!DOCTYPE svg PUBLIC "-//W3C//DTD SVG 20010904//EN"
 "http://www.w3.org/TR/2001/REC-SVG-20010904/DTD/svg10.dtd">
<svg version="1.0" xmlns="http://www.w3.org/2000/svg"
 width="400.000000pt" height="400.000000pt" viewBox="0 0 400.000000 400.000000"
 preserveAspectRatio="xMidYMid meet">

<g transform="translate(0.000000,400.000000) scale(0.100000,-0.100000)"
fill="#000000" stroke="none">
<path d="M0 3201 l0 -800 38 -4 37 -4 -37 -1 c-35 -2 -38 -4 -38 -32 0 -29 1
-30 53 -32 47 -1 48 -2 12 -5 -53 -6 -65 -19 -19 -21 54 -2 55 -12 1 -12 l-47
0 0 -1146 0 -1145 447 2 c396 2 449 4 460 18 11 15 12 14 13 -1 0 -11 6 -15
20 -11 11 3 20 9 20 14 0 5 7 9 15 9 22 0 18 17 -5 23 -11 3 -20 12 -20 21 0
14 3 15 23 3 27 -15 45 -15 75 1 14 8 22 9 22 2 0 -5 -6 -10 -12 -11 -15 -1
21 -17 40 -18 10 -1 9 3 -2 15 -9 8 -14 20 -11 25 9 14 13 11 30 -21 14 -27
14 -30 -3 -39 -16 -10 -16 -10 1 -11 9 0 17 5 17 10 0 6 7 10 15 10 8 0 15 -4
15 -10 0 -5 -5 -10 -11 -10 -5 0 -7 -5 -4 -10 4 -7 246 -10 695 -10 612 0 689
2 694 16 3 8 2 12 -4 9 -6 -3 -10 -2 -10 4 0 5 4 12 10 16 5 3 6 13 3 22 -5
12 -3 14 8 8 12 -7 12 -6 1 7 -10 12 -11 22 -3 36 6 11 8 31 6 45 -3 14 0 29
7 33 8 5 9 2 5 -9 -3 -9 -3 -19 2 -21 11 -7 10 27 -2 42 -6 8 -6 12 2 12 6 0
11 7 11 15 0 18 -16 20 -23 3 -3 -7 -6 -1 -6 14 -1 15 3 30 9 33 5 3 10 2 10
-3 0 -6 10 -8 21 -5 18 5 20 3 14 -16 -6 -21 8 -30 20 -11 10 17 42 11 99 -17
34 -16 61 -23 72 -19 16 6 16 9 4 16 -11 7 -12 12 -3 21 16 16 63 3 63 -19 0
-10 3 -13 8 -6 9 14 49 11 65 -5 17 -17 -2 -27 -50 -26 -31 0 -38 4 -43 24 -3
14 -11 26 -18 27 -7 1 -8 0 -2 -3 16 -7 12 -33 -5 -33 -8 0 -15 -4 -15 -10 0
-5 5 -10 11 -10 6 0 9 -8 7 -17 -4 -15 2 -18 29 -18 18 0 33 4 33 8 0 4 9 3
20 -3 16 -9 20 -8 21 7 0 11 3 13 6 6 2 -7 12 -13 20 -13 9 0 13 6 9 15 -7 18
10 20 17 3 4 -10 8 -9 17 2 10 12 11 11 7 -8 -4 -15 -1 -22 6 -19 7 3 11 10
10 16 -2 6 2 11 7 11 25 0 7 -31 -20 -37 -33 -6 -45 -17 -35 -33 4 -6 12 -4
21 5 20 20 41 20 24 0 -18 -22 -2 -37 33 -30 26 5 29 4 14 -5 -9 -6 -15 -16
-11 -22 4 -7 10 -5 16 3 7 11 11 11 15 2 2 -7 16 -13 29 -13 14 0 27 -7 30
-15 4 -8 12 -15 20 -15 8 0 14 -3 14 -7 0 -5 20 -9 45 -11 25 -1 45 2 45 8 0
5 -4 10 -10 10 -5 0 -10 8 -11 18 0 10 -3 12 -6 5 -7 -19 -34 -16 -49 5 -8 10
-13 12 -14 4 0 -10 -4 -10 -20 0 -25 16 -26 29 -2 22 12 -4 14 -3 4 4 -7 5
-24 7 -38 4 -17 -3 -24 0 -24 12 0 9 6 13 14 10 7 -3 16 2 19 10 4 9 14 12 26
9 17 -4 21 -1 21 18 0 12 3 20 6 16 10 -10 -5 -58 -16 -52 -6 3 -10 1 -10 -5
0 -8 11 -9 33 -5 30 6 31 5 13 -9 -16 -13 -17 -18 -6 -31 9 -11 16 -13 24 -5
15 15 36 12 36 -5 0 -8 9 -15 20 -15 11 0 20 -5 20 -11 0 -5 -4 -7 -10 -4 -5
3 -10 2 -10 -3 0 -5 14 -9 30 -10 17 0 30 4 30 10 0 7 5 6 14 -1 18 -15 312
-14 340 1 12 6 16 6 12 0 -3 -6 53 -10 154 -11 l160 -2 0 2001 -1 2000 -1999
0 -1999 0 -1 -799z m2450 454 c0 -8 -4 -15 -10 -15 -5 0 -10 7 -10 15 0 8 5
15 10 15 6 0 10 -7 10 -15z m-2230 -65 c0 -11 -7 -20 -15 -20 -8 0 -15 9 -15
20 0 11 7 20 15 20 8 0 15 -9 15 -20z m-110 -25 c0 -28 -21 -33 -40 -10 -15
18 -5 35 21 35 14 0 19 -7 19 -25z m0 -70 c0 -19 -13 -25 -29 -15 -19 11 -6
41 14 34 8 -3 15 -12 15 -19z m50 10 c0 -8 -4 -15 -10 -15 -5 0 -10 7 -10 15
0 8 5 15 10 15 6 0 10 -7 10 -15z m114 -60 c3 -8 1 -15 -4 -15 -6 0 -10 7 -10
15 0 8 2 15 4 15 2 0 6 -7 10 -15z m-154 -27 c-1 -31 -1 -32 -16 -13 -12 16
-18 18 -34 7 -17 -10 -20 -10 -20 6 0 25 9 32 42 32 25 0 28 -3 28 -32z m1826
-5 c-10 -10 -19 5 -10 18 6 11 8 11 12 0 2 -7 1 -15 -2 -18z m1164 -22 c-1
-49 -40 -77 -68 -49 -19 19 -14 47 13 74 21 21 29 23 40 14 8 -7 15 -24 15
-39z m126 25 c11 -28 11 -51 1 -63 -15 -19 -41 -15 -55 8 -12 18 -11 24 9 45
26 27 37 30 45 10z m-1481 -6 c3 -5 2 -10 -4 -10 -5 0 -13 5 -16 10 -3 6 -2
10 4 10 5 0 13 -4 16 -10z m112 -12 c-3 -8 -6 -5 -6 6 -1 11 2 17 5 13 3 -3 4
-12 1 -19z m33 7 c0 -8 -4 -15 -10 -15 -5 0 -10 7 -10 15 0 8 5 15 10 15 6 0
10 -7 10 -15z m-360 -14 c0 -5 -7 -14 -15 -21 -13 -10 -15 -9 -15 9 0 12 6 21
15 21 8 0 15 -4 15 -9z m-710 -32 c0 -10 -4 -19 -10 -19 -5 0 -10 12 -10 26 0
14 4 23 10 19 6 -3 10 -15 10 -26z m-550 11 c0 -5 -4 -10 -10 -10 -5 0 -10 5
-10 10 0 6 5 10 10 10 6 0 10 -4 10 -10z m490 -10 c0 -11 -2 -20 -4 -20 -2 0
-6 9 -9 20 -3 11 -1 20 4 20 5 0 9 -9 9 -20z m2382 -75 c-4 -80 -4 -85 15 -85
11 0 26 12 34 28 12 24 33 44 49 48 3 0 18 4 33 9 34 9 67 -16 67 -51 0 -30
10 -55 20 -49 11 7 20 -8 26 -40 4 -23 1 -25 -33 -27 -21 0 -44 -1 -50 -1 -7
1 -13 -2 -13 -6 0 -10 -42 -11 -55 -2 -5 5 -22 11 -37 15 -20 5 -28 13 -28 29
0 20 -1 20 -14 -5 -19 -36 -34 -224 -17 -214 6 4 11 2 11 -4 0 -6 -6 -13 -13
-16 -9 -3 -12 -24 -9 -74 3 -44 0 -70 -6 -70 -6 0 -10 24 -10 58 0 31 0 119 0
195 l-1 138 -61 -3 c-33 -2 -60 -1 -60 2 0 3 -17 5 -38 4 -20 0 -47 3 -59 7
-14 5 -23 4 -27 -4 -3 -8 -8 -7 -16 5 -10 16 -17 17 -57 1 -10 -3 -35 -7 -55
-8 -21 -2 -41 -4 -45 -5 -5 -2 -12 -4 -18 -5 -5 -1 -18 -5 -28 -10 -9 -4 -30
-4 -45 -1 -15 4 -34 8 -44 10 -9 1 -22 7 -30 13 -7 6 -28 14 -45 18 -18 3 -33
11 -33 16 0 6 -4 8 -8 5 -4 -2 -14 -1 -22 5 -13 7 -12 9 3 9 9 0 17 4 17 9 0
6 19 14 43 18 26 6 42 14 42 23 1 20 34 59 66 76 24 12 30 11 53 -7 14 -11 23
-26 19 -32 -4 -6 0 -8 10 -4 14 5 17 0 17 -33 0 -28 4 -40 15 -41 8 -1 20 -3
25 -4 6 -1 17 -3 26 -4 8 0 13 -5 10 -9 -3 -5 1 -9 9 -9 8 0 15 5 15 11 0 6 5
4 10 -4 8 -13 11 -13 19 -1 7 12 13 12 40 0 17 -8 31 -17 31 -21 0 -5 5 -8 11
-8 5 0 8 4 5 9 -3 5 3 11 14 14 11 3 23 1 26 -4 3 -6 12 -5 22 3 9 7 13 8 9 2
-10 -17 123 -10 134 7 5 8 9 46 9 85 0 39 3 74 6 77 17 16 21 -9 16 -88z
m-3032 59 c0 -21 -4 -25 -22 -22 -15 2 -24 11 -26 26 -3 18 1 22 22 22 21 0
26 -5 26 -26z m47 4 c-3 -8 -6 -5 -6 6 -1 11 2 17 5 13 3 -3 4 -12 1 -19z
m1533 -13 c0 -14 -4 -25 -10 -25 -11 0 -14 33 -3 43 11 11 13 8 13 -18z m60
16 c0 -6 -4 -13 -10 -16 -5 -3 -10 1 -10 9 0 9 5 16 10 16 6 0 10 -4 10 -9z
m70 3 c0 -3 -6 -12 -14 -20 -16 -15 -32 -2 -21 16 7 11 35 14 35 4z m230 -10
c0 -8 -4 -12 -10 -9 -5 3 -10 10 -10 16 0 5 5 9 10 9 6 0 10 -7 10 -16z m-890
-25 c0 -5 -7 -9 -15 -9 -15 0 -20 12 -9 23 8 8 24 -1 24 -14z m34 6 c-4 -8 -8
-15 -10 -15 -2 0 -4 7 -4 15 0 8 4 15 10 15 5 0 7 -7 4 -15z m-144 -4 c0 -6
-4 -13 -10 -16 -5 -3 -10 1 -10 9 0 9 5 16 10 16 6 0 10 -4 10 -9z m60 5 c0
-2 -3 -11 -6 -20 -9 -23 -24 -20 -24 4 0 11 7 20 15 20 8 0 15 -2 15 -4z
m-380 -27 c0 -5 -7 -9 -15 -9 -15 0 -20 12 -9 23 8 8 24 -1 24 -14z m-510 -10
c0 -6 -4 -7 -10 -4 -5 3 -10 11 -10 16 0 6 5 7 10 4 6 -3 10 -11 10 -16z
m1368 -24 c-1 -19 1 -37 5 -41 7 -8 -10 -34 -23 -34 -4 0 -7 25 -7 55 0 40 4
55 14 55 9 0 13 -11 11 -35z m-52 2 c1 -9 -2 -15 -7 -11 -5 3 -9 0 -9 -6 0 -6
-4 -8 -10 -5 -5 3 -10 15 -10 26 0 26 32 22 36 -4z m-423 -25 c-5 -12 -7 -12
-15 2 -11 20 1 44 12 25 5 -6 6 -19 3 -27z m-393 2 c0 -9 -5 -14 -12 -12 -18
6 -21 28 -4 28 9 0 16 -7 16 -16z m40 6 c0 -5 -4 -10 -10 -10 -5 0 -10 5 -10
10 0 6 5 10 10 10 6 0 10 -4 10 -10z m61 -3 c-1 -12 -15 -9 -19 4 -3 6 1 10 8
8 6 -3 11 -8 11 -12z m-598 -3 c11 -11 -3 -24 -18 -18 -8 4 -12 10 -9 15 6 11
18 12 27 3z m-105 -41 c3 -19 -1 -23 -22 -23 -21 0 -26 5 -26 26 0 21 4 25 23
22 14 -2 23 -11 25 -25z m1362 -2 c0 -8 -23 -21 -36 -21 -2 0 -4 11 -4 25 0
23 2 24 20 15 11 -6 20 -15 20 -19z m-324 -8 c-10 -10 -19 5 -10 18 6 11 8 11
12 0 2 -7 1 -15 -2 -18z m202 2 c-3 -3 -9 2 -12 12 -6 14 -5 15 5 6 7 -7 10
-15 7 -18z m42 15 c0 -5 -2 -10 -4 -10 -3 0 -8 5 -11 10 -3 6 -1 10 4 10 6 0
11 -4 11 -10z m120 -6 c0 -8 -4 -12 -10 -9 -5 3 -10 10 -10 16 0 5 5 9 10 9 6
0 10 -7 10 -16z m-250 -4 c0 -5 -4 -10 -10 -10 -5 0 -10 5 -10 10 0 6 5 10 10
10 6 0 10 -4 10 -10z m-893 -26 c5 -15 -44 -36 -53 -23 -3 5 -3 17 0 25 7 17
47 16 53 -2z m-197 -34 c0 -11 -2 -20 -5 -20 -2 0 -9 9 -15 20 -9 16 -8 20 5
20 8 0 15 -9 15 -20z m50 4 c0 -8 -4 -12 -10 -9 -5 3 -10 10 -10 16 0 5 5 9
10 9 6 0 10 -7 10 -16z m-120 -9 c0 -8 -6 -15 -14 -15 -8 0 -16 7 -20 15 -4
10 1 15 14 15 11 0 20 -7 20 -15z m712 -17 c-9 -9 -12 -7 -12 12 0 19 3 21 12
12 9 -9 9 -15 0 -24z m-444 -43 c-1 -14 -5 -25 -9 -25 -10 0 -20 30 -13 41 11
18 24 9 22 -16z m736 0 c-3 -7 -12 -11 -20 -8 -17 6 -18 20 -1 26 18 6 27 -1
21 -18z m-994 5 c13 -8 13 -11 -1 -25 -14 -14 -16 -13 -27 10 -13 27 -1 34 28
15z m50 -11 c0 -5 -4 -9 -10 -9 -5 0 -10 7 -10 16 0 8 5 12 10 9 6 -3 10 -10
10 -16z m60 11 c0 -5 -4 -10 -10 -10 -5 0 -10 5 -10 10 0 6 5 10 10 10 6 0 10
-4 10 -10z m760 -6 c0 -8 -4 -12 -10 -9 -5 3 -10 10 -10 16 0 5 5 9 10 9 6 0
10 -7 10 -16z m180 6 c0 -5 -4 -10 -10 -10 -5 0 -10 5 -10 10 0 6 5 10 10 10
6 0 10 -4 10 -10z m-550 -16 c0 -8 -4 -12 -10 -9 -5 3 -10 10 -10 16 0 5 5 9
10 9 6 0 10 -7 10 -16z m1897 0 c-3 -3 -12 -4 -19 -1 -8 3 -5 6 6 6 11 1 17
-2 13 -5z m213 -13 c9 -7 -9 -9 -53 -8 -37 1 -67 5 -67 10 0 10 102 9 120 -2z
m-626 -16 c8 -8 21 -15 29 -15 8 0 17 -6 20 -14 6 -15 -20 -26 -64 -26 -30 0
-72 -50 -63 -75 6 -13 8 -14 15 -3 7 10 9 8 9 -6 0 -15 3 -16 15 -6 10 9 15 9
15 1 0 -6 9 -11 20 -11 22 0 27 -15 8 -23 -7 -3 -1 -6 13 -6 16 -1 29 6 33 15
3 9 15 14 28 12 15 -2 23 -11 25 -33 2 -16 8 -32 14 -33 5 -2 6 -8 3 -13 -3
-6 -8 -32 -10 -60 -8 -93 -55 -159 -114 -159 -10 0 -22 -5 -25 -10 -4 -6 -11
-8 -16 -4 -6 3 -18 -1 -28 -10 -31 -29 -111 -4 -160 48 -25 27 -47 35 -36 14
4 -7 -3 -2 -14 12 -11 14 -21 30 -21 37 0 6 -4 13 -10 15 -12 4 -31 103 -24
122 3 8 1 17 -5 21 -19 11 -11 49 13 67 23 17 25 17 49 -2 28 -22 58 -26 55
-7 -2 6 5 11 15 9 9 -2 17 2 17 9 0 8 4 8 15 -1 11 -9 15 -9 15 -1 0 7 4 10 9
6 19 -11 22 17 7 50 -13 26 -25 36 -51 41 -19 3 -32 10 -29 16 3 5 8 7 10 5 3
-2 33 2 67 9 76 16 80 16 72 4 -3 -6 1 -7 9 -4 9 3 16 10 16 15 0 15 37 10 54
-6z m76 -7 c0 -12 -3 -18 -7 -14 -11 10 -12 36 -2 36 5 0 9 -10 9 -22z m-802
-40 c4 -21 -25 -31 -50 -17 -20 11 -20 9 -15 -83 3 -51 10 -115 15 -143 l8
-50 19 38 19 39 8 -28 c5 -18 2 -39 -9 -61 -20 -43 -33 -50 -34 -21 -1 23 -1
23 -8 -2 -4 -14 -4 -35 0 -47 5 -12 7 -50 6 -83 -2 -61 -5 -65 -49 -61 -12 2
-19 -8 -23 -33 -4 -19 -13 -40 -19 -45 -15 -13 -139 5 -145 21 -2 6 -7 5 -12
-3 -6 -10 -9 -8 -9 9 0 16 7 26 20 29 11 3 20 12 20 19 0 9 11 14 30 14 21 0
30 5 30 16 0 8 4 13 9 10 9 -6 37 21 29 29 -8 8 -52 8 -69 1 -20 -9 -37 11
-41 49 -3 26 2 32 30 44 17 8 32 21 32 28 0 8 5 11 11 8 15 -10 119 5 119 16
0 15 -122 1 -139 -16 -19 -19 -51 11 -52 50 -1 29 -1 29 -9 5 -8 -27 -17 -16
-22 30 -2 17 -8 24 -20 22 -19 -3 -25 13 -8 23 5 3 7 11 5 18 -7 17 11 41 24
33 6 -4 11 -16 11 -26 0 -10 5 -22 10 -25 6 -3 10 -1 10 4 0 6 9 11 20 11 10
0 23 6 27 14 13 22 66 25 61 4 -3 -15 3 -18 42 -18 17 0 30 4 30 8 0 5 -13 7
-30 4 -22 -3 -30 0 -30 11 0 16 26 30 40 22 16 -10 22 16 15 63 -5 40 -11 50
-36 61 -16 7 -29 19 -29 26 0 14 9 14 49 1 18 -6 26 -4 33 8 8 14 13 14 41 3
18 -8 33 -20 35 -29z m-1188 11 c0 -11 -4 -17 -10 -14 -5 3 -10 13 -10 21 0 8
5 14 10 14 6 0 10 -9 10 -21z m2461 4 c0 -11 3 -13 6 -5 12 29 22 8 16 -35 -6
-42 -4 -46 12 -40 13 5 16 3 11 -8 -3 -8 -1 -15 4 -15 6 0 10 -11 10 -24 0
-28 -40 -44 -53 -21 -4 8 -13 15 -20 15 -8 0 -8 -3 2 -9 17 -11 -32 -28 -99
-34 -25 -3 -57 -8 -72 -12 -37 -10 -70 0 -86 25 -8 13 -8 19 -1 18 6 -2 16 6
22 17 7 11 16 23 20 26 12 9 87 10 87 1 0 -5 14 -6 31 -4 26 4 29 6 15 14 -9
5 -16 20 -16 34 0 19 7 28 29 35 16 6 32 17 35 25 8 20 46 18 47 -3z m-2521
-14 c0 -14 -4 -18 -12 -12 -7 4 -17 8 -22 8 -5 0 -11 6 -13 13 -3 7 5 12 21
12 20 0 26 -5 26 -21z m1299 -46 c-1 -37 -1 -37 -8 -8 -7 28 -5 45 5 45 2 0 3
-17 3 -37z m1861 8 c0 -24 0 -24 -15 -5 -14 18 -14 18 -15 -5 0 -19 -3 -21
-14 -12 -22 18 -8 51 20 49 18 -2 24 -8 24 -27z m-1810 9 c0 -5 -9 -10 -20
-10 -11 0 -20 5 -20 10 0 6 9 10 20 10 11 0 20 -4 20 -10z m424 -27 c3 -8 -2
-13 -13 -13 -10 0 -21 7 -25 15 -3 8 -13 15 -21 15 -9 0 -14 4 -11 9 8 12 64
-9 70 -26z m-1614 12 c-1 -6 -10 -13 -21 -17 -14 -5 -19 -3 -19 8 0 11 6 14
16 10 9 -4 13 -2 8 5 -4 7 -2 10 5 8 7 -3 12 -9 11 -14z m1320 -104 c0 -109
-12 -113 -21 -8 l-6 72 -1 -71 c-2 -55 -5 -71 -17 -71 -16 0 -17 5 -15 90 1
44 6 63 23 80 14 14 25 18 29 12 4 -5 8 -52 8 -104z m-1253 87 c-3 -8 -6 -5
-6 6 -1 11 2 17 5 13 3 -3 4 -12 1 -19z m1806 -1 c-5 -8 -8 -8 -10 0 -3 7 -12
9 -21 6 -14 -4 -14 -3 -3 5 17 12 43 4 34 -11z m1417 14 c0 -6 -4 -13 -10 -16
-5 -3 -10 1 -10 9 0 9 5 16 10 16 6 0 10 -4 10 -9z m-1470 -21 c0 -5 -2 -10
-4 -10 -3 0 -8 5 -11 10 -3 6 -1 10 4 10 6 0 11 -4 11 -10z m-608 -117 c2 -33
0 -59 -4 -57 -3 2 -9 -4 -12 -13 -2 -10 -3 5 -1 32 2 28 5 75 6 105 2 59 7 33
11 -67z m28 20 c0 -47 -3 -84 -6 -81 -11 11 -15 168 -4 168 6 0 10 -34 10 -87z
m-73 35 c-3 -8 -6 -5 -6 6 -1 11 2 17 5 13 3 -3 4 -12 1 -19z m-502 -28 c8
-13 -4 -50 -16 -50 -13 0 -22 27 -15 45 6 17 22 20 31 5z m487 -42 l1 -53 6
55 c5 45 7 50 13 30 4 -14 8 -44 8 -67 0 -42 0 -43 -35 -43 -29 0 -35 4 -35
21 0 11 5 17 10 14 6 -4 10 13 10 44 0 68 20 66 22 -1z m278 -21 c0 -18 3 -42
6 -55 5 -16 3 -21 -7 -17 -16 6 -59 98 -59 126 0 20 1 20 30 -1 22 -16 30 -29
30 -53z m-887 -3 c-6 -15 -7 -15 -15 5 -10 28 1 51 13 28 5 -8 6 -23 2 -33z
m77 12 c-8 -8 -13 -7 -20 4 -12 20 -1 33 16 19 11 -9 12 -15 4 -23z m159 -58
c0 -18 -3 -27 -6 -19 -5 11 -7 11 -14 0 -6 -10 -9 -11 -9 -1 0 6 -4 12 -10 12
-5 0 -10 -9 -10 -20 0 -26 -17 -26 -25 1 -8 25 -4 30 31 34 16 1 30 8 32 14 7
21 12 11 11 -21z m-95 -15 c2 -11 1 -24 -2 -30 -9 -13 -122 -25 -122 -13 0 5
7 7 15 4 11 -5 15 1 15 22 0 27 1 27 15 8 9 -12 14 -14 15 -6 0 7 4 11 8 8 5
-3 15 6 22 20 14 26 28 21 34 -13z m-578 16 c3 -6 2 -15 -4 -21 -6 -6 -8 -17
-5 -25 5 -12 1 -11 -15 3 -23 19 -29 30 -12 19 6 -3 10 3 10 14 0 22 15 28 26
10z m241 -16 c9 -18 9 -30 2 -39 -5 -6 -8 -18 -7 -25 2 -8 -4 -14 -12 -14 -8
0 -14 8 -13 18 0 11 -9 23 -23 29 -29 14 -32 38 -4 38 11 0 20 5 20 10 0 20
25 9 37 -17z m2493 17 c0 -5 -4 -10 -10 -10 -5 0 -10 5 -10 10 0 6 5 10 10 10
6 0 10 -4 10 -10z m-854 -28 c-7 -20 -34 -37 -44 -27 -3 2 1 11 8 20 7 8 9 15
4 16 -5 0 0 4 11 8 25 11 28 8 21 -17z m845 -65 c-4 -74 -11 -72 -11 3 0 35 3
60 7 56 4 -3 6 -30 4 -59z m-2281 33 c0 -5 -2 -10 -4 -10 -3 0 -8 5 -11 10 -3
6 -1 10 4 10 6 0 11 -4 11 -10z m540 -5 c0 -8 -4 -15 -10 -15 -5 0 -7 7 -4 15
4 8 8 15 10 15 2 0 4 -7 4 -15z m-1295 -15 c3 -5 1 -10 -4 -10 -6 0 -11 5 -11
10 0 6 2 10 4 10 3 0 8 -4 11 -10z m1300 -37 c4 -19 1 -32 -14 -47 l-21 -20 0
47 c0 53 23 67 35 20z m-392 -10 c15 -3 27 -8 27 -12 -1 -16 -21 -36 -37 -36
-25 0 -45 -14 -37 -27 4 -7 0 -7 -12 0 -11 5 -33 9 -51 8 -17 0 -29 3 -26 8 3
5 0 6 -8 4 -8 -3 -26 1 -41 8 -17 9 -29 10 -33 4 -8 -13 -65 20 -65 37 0 10
15 13 63 9 34 -2 80 0 102 4 22 5 51 6 65 4 14 -3 37 -8 53 -11z m1396 -19
c10 -24 10 -24 -13 -9 -31 21 -41 45 -16 38 9 -3 23 -16 29 -29z m-1959 6 c0
-5 -4 -10 -10 -10 -5 0 -10 5 -10 10 0 6 5 10 10 10 6 0 10 -4 10 -10z m2396
-41 c3 -6 -1 -10 -12 -9 -11 1 -36 2 -56 1 -36 -1 -38 -2 -38 -36 0 -33 -2
-35 -32 -34 -30 0 -31 1 -10 9 16 7 22 18 22 39 0 27 3 30 38 34 72 7 81 7 88
-4z m-606 -21 c0 30 55 -9 62 -44 4 -22 58 -49 208 -104 63 -24 122 -48 130
-55 8 -7 25 -16 38 -19 29 -9 37 -27 52 -106 12 -58 41 -128 102 -244 13 -24
22 -64 25 -105 2 -36 11 -87 19 -113 8 -26 14 -71 14 -100 0 -67 9 -98 26 -98
8 0 14 -9 14 -21 0 -17 4 -19 23 -13 59 19 66 -3 26 -91 -12 -27 -23 -52 -23
-55 -1 -3 -4 -9 -7 -15 -3 -5 -14 -41 -24 -78 -15 -57 -21 -68 -37 -64 -10 3
-19 0 -20 -6 -3 -25 -4 -33 -12 -57 -4 -14 -22 -63 -41 -110 -100 -258 -105
-272 -105 -302 0 -29 -1 -29 -66 -32 -11 0 -37 10 -58 22 -29 17 -36 27 -31
40 21 51 65 222 84 327 27 153 41 205 54 205 5 0 -2 9 -17 21 -14 11 -25 26
-24 32 1 7 -6 27 -16 46 -18 33 -18 35 0 48 17 12 17 13 0 13 -19 0 -46 54
-46 93 0 13 -14 52 -32 87 -17 35 -31 77 -31 93 0 20 -3 24 -9 14 -4 -8 -8
-80 -7 -159 1 -210 0 -220 -12 -250 -8 -20 -8 -40 -1 -70 12 -49 21 -373 10
-383 -4 -4 -4 -13 -1 -21 14 -36 -50 -71 -166 -90 -120 -19 -185 -18 -266 8
-84 25 -244 27 -258 2 -11 -20 -77 -19 -77 1 0 8 -4 15 -8 15 -5 0 -8 20 -7
45 1 25 -1 45 -5 45 -4 0 -27 -9 -51 -19 -45 -20 -96 -20 -157 -2 -18 5 -36 9
-39 8 -4 -1 -12 10 -17 25 -8 22 -6 32 8 47 10 11 25 19 34 19 10 -1 37 5 61
11 40 12 46 11 58 -5 7 -10 13 -21 13 -26 0 -12 -45 -9 -58 4 -9 9 -12 9 -12
0 0 -7 -7 -9 -17 -5 -13 4 -11 -1 6 -15 17 -16 37 -22 68 -22 52 0 54 11 18
88 -14 30 -25 66 -25 82 0 30 -20 52 -41 48 -8 -2 -15 8 -17 22 -2 14 -10 40
-18 58 -8 18 -12 43 -9 55 6 21 5 21 -8 -2 -8 -14 -17 -19 -21 -13 -3 6 0 12
6 14 9 3 13 35 14 109 1 57 5 140 9 183 7 72 6 79 -9 73 -10 -4 -27 -7 -39 -7
l-22 -1 23 -12 c17 -10 20 -15 10 -25 -9 -9 -9 -12 0 -12 21 0 13 -16 -15 -30
-19 -8 -23 -14 -14 -18 7 -2 17 2 22 9 12 21 22 3 15 -26 -8 -33 -58 -85 -64
-67 -2 7 -12 12 -21 12 -10 0 -33 7 -50 16 -34 17 -95 21 -134 8 -19 -6 -20
-5 -8 10 12 14 11 16 -3 16 -21 0 -21 43 0 75 8 13 20 57 25 97 6 40 21 95 34
122 17 36 21 55 14 67 -13 25 -11 60 5 78 7 9 19 61 26 116 25 201 25 195 2
211 -14 9 -18 21 -15 36 10 38 22 48 49 38 14 -6 24 -6 24 0 0 5 -9 12 -20 15
-11 4 -18 11 -14 16 4 6 15 2 28 -10 35 -32 86 -41 131 -22 11 5 55 24 98 41
69 29 82 40 115 86 51 74 62 71 63 -19 0 -38 33 -33 37 6 2 15 6 27 10 27 10
0 56 -32 77 -53 15 -16 27 -18 79 -12 64 8 90 23 185 109 42 37 45 38 57 21 8
-11 14 -13 14 -7z m-1991 -18 c30 -29 43 -59 19 -44 -7 5 -9 0 -6 -14 4 -12 0
-26 -8 -33 -12 -9 -14 -5 -16 27 0 22 -1 45 -1 51 1 9 -7 11 -23 7 -29 -8 -62
14 -42 27 24 15 45 9 77 -21z m2298 -22 c-2 -13 -4 -5 -4 17 -1 22 1 32 4 23
2 -10 2 -28 0 -40z m-2235 -2 c-3 -5 -9 -1 -12 10 -4 10 -5 23 -2 28 3 5 9 1
12 -10 4 -10 5 -23 2 -28z m2774 21 c6 -45 -25 -49 -236 -32 -30 2 -58 4 -62
5 -11 0 -10 30 0 30 4 0 13 -5 20 -12 9 -9 12 -8 12 4 0 19 33 23 179 23 73 0
84 -2 87 -18z m-2226 -7 c0 -5 -4 -10 -10 -10 -5 0 -10 -5 -10 -10 0 -7 13 -8
35 -4 28 5 35 3 35 -9 0 -12 -10 -16 -39 -15 -22 0 -43 -2 -48 -5 -4 -3 -26
-1 -48 3 -35 7 -37 9 -17 15 12 4 22 14 22 21 0 8 5 14 10 14 6 0 10 -6 10
-12 0 -9 4 -8 10 2 5 8 10 11 10 6 0 -6 5 -5 12 2 15 15 28 16 28 2z m680 -4
c0 -7 -12 -16 -27 -19 -32 -6 -43 -1 -43 19 0 9 11 14 35 14 23 0 35 -5 35
-14z m1230 7 c0 -5 -5 -15 -10 -23 -8 -12 -10 -11 -10 8 0 12 5 22 10 22 6 0
10 -3 10 -7z m-2030 -13 c0 -6 -27 -10 -62 -9 -47 1 -57 3 -38 9 36 12 100 12
100 0z m2730 0 c0 -5 -4 -10 -10 -10 -5 0 -10 5 -10 10 0 6 5 10 10 10 6 0 10
-4 10 -10z m-800 -21 c0 -5 -11 -9 -25 -9 -26 0 -34 15 -12 23 16 5 37 -3 37
-14z m730 11 c0 -5 -4 -10 -10 -10 -5 0 -10 5 -10 10 0 6 5 10 10 10 6 0 10
-4 10 -10z m-2320 -27 c0 -21 -3 -22 -47 -16 -56 7 -57 8 -50 27 4 10 20 14
51 13 41 -1 46 -4 46 -24z m2270 18 c0 -13 -65 -21 -165 -21 -73 1 -87 3 -74
13 19 14 239 21 239 8z m-2780 -11 c0 -5 -4 -10 -10 -10 -5 0 -10 5 -10 10 0
6 5 10 10 10 6 0 10 -4 10 -10z m2530 -28 c0 -7 -111 -8 -160 -2 -21 2 -20 4
10 9 41 7 150 2 150 -7z m-2566 -1 c7 -11 -3 -41 -14 -41 -10 0 -20 37 -12 44
8 9 20 7 26 -3z m2136 -17 c0 -8 -5 -12 -10 -9 -6 4 -8 11 -5 16 9 14 15 11
15 -7z m637 -10 c-4 -4 -33 -9 -64 -10 -35 -2 -50 0 -39 4 25 11 113 15 103 6z
m-2457 -14 c0 -5 -2 -10 -4 -10 -3 0 -8 5 -11 10 -3 6 -1 10 4 10 6 0 11 -4
11 -10z m-67 -62 c3 -21 2 -38 -2 -38 -12 0 -32 66 -25 85 9 22 19 5 27 -47z
m-63 32 c0 -5 -4 -10 -10 -10 -5 0 -10 5 -10 10 0 6 5 10 10 10 6 0 10 -4 10
-10z m-33 -22 c-3 -8 -6 -5 -6 6 -1 11 2 17 5 13 3 -3 4 -12 1 -19z m2503 -6
c19 -7 8 -10 -50 -14 -74 -6 -100 -3 -100 12 0 10 122 12 150 2z m-2556 -17
c11 -8 27 -15 37 -15 9 0 22 -7 29 -15 7 -9 19 -14 26 -11 7 3 18 -2 25 -10 8
-10 15 -11 24 -4 8 7 18 3 33 -11 12 -11 22 -23 22 -27 0 -12 -20 -38 -20 -27
-1 6 -8 -3 -16 -18 -8 -15 -18 -26 -22 -23 -4 2 -9 -7 -10 -21 -1 -15 -4 -28
-7 -31 -2 -2 -27 3 -54 12 -27 9 -56 16 -65 16 -8 0 -16 10 -18 23 -2 14 -9
21 -21 20 -17 -1 -18 6 -16 60 3 61 13 97 27 97 4 0 16 -7 26 -15z m-84 1 c0
-3 -4 -8 -10 -11 -5 -3 -10 -1 -10 4 0 6 5 11 10 11 6 0 10 -2 10 -4z m2250
-16 c0 -5 -4 -10 -9 -10 -6 0 -13 5 -16 10 -3 6 1 10 9 10 9 0 16 -4 16 -10z
m164 2 c2 -4 25 -7 50 -6 36 1 50 -4 67 -22 l22 -24 -21 0 c-11 0 -24 5 -27
10 -3 6 -15 10 -25 10 -10 0 -20 5 -22 11 -3 9 -10 9 -27 -1 -16 -8 -41 -10
-74 -6 -74 10 -80 20 -17 27 30 3 58 6 62 7 4 1 9 -1 12 -6z m207 -85 c-1 -12
-15 -9 -19 4 -3 6 1 10 8 8 6 -3 11 -8 11 -12z m-2075 -102 c-8 -8 -17 -15
-19 -15 -3 0 -7 7 -11 15 -4 11 2 15 20 15 23 0 24 -2 10 -15z m-436 -35 c0
-5 -2 -10 -4 -10 -3 0 -8 5 -11 10 -3 6 -1 10 4 10 6 0 11 -4 11 -10z m860
-1250 c51 -26 51 -40 1 -40 -41 0 -67 20 -57 45 7 19 9 19 56 -5z m165 -54
c-32 -23 -38 -24 -110 -29 -41 -3 -113 7 -95 13 15 5 52 12 113 20 37 5 78 16
90 25 34 24 36 -4 2 -29z m-94 -67 c-16 -6 -28 -6 -35 1 -7 7 1 10 25 9 32 0
33 -1 10 -10z m956 -54 c19 -10 39 -34 57 -70 25 -51 25 -57 12 -89 -15 -36
-40 -60 -30 -29 3 10 -4 1 -16 -21 -12 -21 -19 -47 -17 -58 4 -15 3 -17 -8 -8
-16 14 -55 97 -80 173 l-19 57 22 16 c13 9 28 22 35 29 7 8 12 14 13 15 0 0
14 -7 31 -15z m153 -44 c0 -8 -6 -11 -15 -7 -8 3 -15 0 -16 -7 0 -9 -2 -9 -5
0 -3 7 0 22 6 34 10 17 14 19 21 8 5 -8 9 -20 9 -28z m-117 -186 c-3 -9 -8
-14 -10 -11 -3 3 -2 9 2 15 9 16 15 13 8 -4z m157 -10 c0 -8 -7 -15 -15 -15
-16 0 -20 12 -8 23 11 12 23 8 23 -8z m-80 -69 c0 -2 -9 -6 -20 -9 -11 -3 -18
-1 -14 4 5 9 34 13 34 5z m335 -36 c-10 -11 -28 -19 -39 -19 -20 2 -20 2 1 6
12 2 27 11 33 19 7 8 15 14 18 14 3 0 -3 -9 -13 -20z m-1925 -44 c0 -3 -4 -8
-10 -11 -5 -3 -10 -1 -10 4 0 6 5 11 10 11 6 0 10 -2 10 -4z m1920 -30 c0 -2
-7 -7 -16 -10 -8 -3 -12 -2 -9 4 6 10 25 14 25 6z m141 -19 c-10 -9 -11 -8 -5
6 3 10 9 15 12 12 3 -3 0 -11 -7 -18z m-2184 -39 c-3 -7 -5 -2 -5 12 0 14 2
19 5 13 2 -7 2 -19 0 -25z m2128 22 c3 -5 1 -10 -4 -10 -6 0 -11 5 -11 10 0 6
2 10 4 10 3 0 8 -4 11 -10z m35 -1 c0 -6 7 -8 18 -4 12 4 14 3 6 -5 -6 -6 -18
-8 -27 -4 -18 7 -23 24 -7 24 6 0 10 -5 10 -11z m-1870 -9 c0 -5 -5 -10 -11
-10 -5 0 -7 5 -4 10 3 6 8 10 11 10 2 0 4 -4 4 -10z m1971 1 c5 8 9 9 9 3 0
-6 -6 -16 -13 -22 -10 -8 -13 -6 -14 11 0 12 1 16 4 8 5 -11 7 -11 14 0z
m-2310 -51 c6 0 7 5 4 10 -3 6 1 10 10 10 9 0 14 -4 10 -9 -3 -6 12 -12 32
-14 33 -3 31 -4 -12 -5 -49 -2 -75 10 -75 33 0 5 5 2 11 -7 5 -10 15 -18 20
-18z m2166 -2 c-3 -8 -6 -5 -6 6 -1 11 2 17 5 13 3 -3 4 -12 1 -19z m153 12
c0 -5 -8 -10 -17 -10 -15 0 -16 2 -3 10 19 12 20 12 20 0z m130 0 c0 -5 -4
-10 -9 -10 -6 0 -13 5 -16 10 -3 6 1 10 9 10 9 0 16 -4 16 -10z m73 -14 c4
-10 0 -12 -14 -9 -22 6 -26 23 -5 23 8 0 16 -6 19 -14z m-2223 0 c0 -3 -4 -8
-10 -11 -5 -3 -10 -1 -10 4 0 6 5 11 10 11 6 0 10 -2 10 -4z m2154 -13 c-9 -7
-21 -10 -25 -7 -5 3 -9 -2 -9 -10 0 -17 20 -17 32 -1 12 15 10 -7 -2 -25 -7
-11 -10 -11 -10 -2 0 7 -5 10 -10 7 -6 -3 -15 6 -21 22 -6 16 -13 22 -16 16
-5 -15 -39 -17 -48 -4 -6 10 24 16 88 17 34 0 37 -2 21 -13z m-2210 -14 c19 3
26 0 26 -10 0 -8 -5 -8 -15 1 -18 15 -20 -1 -3 -18 9 -9 9 -12 0 -12 -7 0 -17
12 -22 26 -12 31 -13 44 -1 26 4 -8 11 -13 15 -13z m-181 4 c-7 -2 -21 -2 -30
0 -10 3 -4 5 12 5 17 0 24 -2 18 -5z m-88 -23 c3 -6 -1 -7 -9 -4 -18 7 -21 14
-7 14 6 0 13 -4 16 -10z m50 0 c3 -5 1 -10 -4 -10 -6 0 -11 5 -11 10 0 6 2 10
4 10 3 0 8 -4 11 -10z m2553 -15 c-3 -3 -9 2 -12 12 -6 14 -5 15 5 6 7 -7 10
-15 7 -18z m69 3 c-3 -8 -6 -5 -6 6 -1 11 2 17 5 13 3 -3 4 -12 1 -19z m188
-6 c-3 -3 -11 0 -18 7 -9 10 -8 11 6 5 10 -3 15 -9 12 -12z m-307 -11 c3 -9 0
-11 -9 -5 -12 7 -12 5 0 -9 19 -24 -1 -21 -27 3 -28 26 -28 26 5 25 14 0 28
-6 31 -14z m-2561 -23 c-3 -7 -5 -2 -5 12 0 14 2 19 5 13 2 -7 2 -19 0 -25z
m68 22 c3 -5 1 -10 -4 -10 -6 0 -11 5 -11 10 0 6 2 10 4 10 3 0 8 -4 11 -10z
m2880 0 c-3 -5 -14 -10 -23 -9 -14 0 -13 2 3 9 27 11 27 11 20 0z m-3000 -10
c3 -5 1 -10 -4 -10 -6 0 -11 5 -11 10 0 6 2 10 4 10 3 0 8 -4 11 -10z m150 1
c3 -5 1 -12 -5 -16 -5 -3 -10 1 -10 9 0 18 6 21 15 7z m2356 -18 c-12 -20 -14
-14 -5 12 4 9 9 14 11 11 3 -2 0 -13 -6 -23z m159 17 c0 -5 -2 -10 -4 -10 -3
0 -8 5 -11 10 -3 6 -1 10 4 10 6 0 11 -4 11 -10z m125 0 c3 -5 1 -10 -4 -10
-6 0 -11 5 -11 10 0 6 2 10 4 10 3 0 8 -4 11 -10z m-30 -20 c3 -5 1 -10 -4
-10 -6 0 -11 5 -11 10 0 6 2 10 4 10 3 0 8 -4 11 -10z"/>
<path d="M1938 2793 c-10 -2 -18 -9 -18 -14 0 -5 8 -12 18 -15 9 -3 27 -11 40
-17 17 -8 28 -8 42 1 27 17 30 15 26 -10 -2 -17 -11 -24 -31 -26 -43 -5 -75 6
-69 23 7 17 -11 21 -21 5 -3 -5 -17 -10 -31 -10 -20 0 -24 -5 -24 -27 0 -20 3
-24 9 -14 6 8 14 10 22 5 8 -4 48 -7 89 -5 l75 3 -19 -21 c-23 -25 -82 -26
-96 -1 -5 8 -9 11 -10 5 0 -21 18 -36 51 -41 30 -5 41 0 78 30 24 20 47 33 52
30 14 -8 23 26 10 39 -7 7 -11 7 -11 0 0 -15 -48 -4 -54 13 -3 8 -1 14 4 14 6
0 10 6 10 13 0 9 -14 12 -49 10 -27 -2 -52 1 -56 7 -6 10 -9 11 -37 3z"/>
<path d="M1100 2770 c0 -5 5 -10 11 -10 5 0 7 5 4 10 -3 6 -8 10 -11 10 -2 0
-4 -4 -4 -10z"/>
<path d="M1260 2649 c0 -5 -7 -6 -15 -3 -10 4 -7 -3 7 -19 21 -24 24 -25 41
-10 9 9 16 21 14 26 -4 12 -47 17 -47 6z"/>
<path d="M1646 2278 c3 -4 11 -5 19 -1 21 7 19 12 -4 10 -11 0 -18 -5 -15 -9z"/>
<path d="M1627 2250 c-3 -11 -1 -20 4 -20 5 0 9 9 9 20 0 11 -2 20 -4 20 -2 0
-6 -9 -9 -20z"/>
<path d="M1475 1918 c-4 -9 5 -40 19 -70 13 -29 26 -66 29 -83 3 -25 4 -23 6
11 1 48 -44 169 -54 142z"/>
<path d="M2485 1887 c-4 -10 -5 -21 -1 -24 10 -10 18 4 13 24 -4 17 -4 17 -12
0z"/>
<path d="M1505 1630 c3 -5 8 -10 11 -10 2 0 4 5 4 10 0 6 -5 10 -11 10 -5 0
-7 -4 -4 -10z"/>
<path d="M1730 791 c0 -5 14 -11 32 -13 28 -5 29 -4 13 9 -21 15 -45 17 -45 4z"/>
<path d="M590 2261 c0 -5 5 -13 10 -16 6 -3 10 -2 10 4 0 5 -4 13 -10 16 -5 3
-10 2 -10 -4z"/>
<path d="M659 2239 c-11 -7 -11 -9 4 -9 9 0 17 -5 17 -11 0 -5 5 -7 10 -4 6 3
10 1 10 -6 0 -7 3 -9 7 -6 12 13 -33 46 -48 36z"/>
<path d="M740 2195 c0 -18 5 -25 20 -25 11 0 20 7 20 15 0 8 -9 19 -20 25 -18
9 -20 8 -20 -15z"/>
<path d="M2620 195 c0 -8 11 -17 25 -21 14 -3 23 -10 20 -14 -3 -5 4 -6 15 -3
11 3 20 0 20 -6 0 -14 50 -14 70 0 12 9 12 10 -4 5 -19 -7 -76 13 -76 26 0 5
-11 8 -25 8 -14 0 -25 5 -25 10 0 6 -4 10 -10 10 -5 0 -10 -7 -10 -15z"/>
<path d="M2628 153 c7 -3 16 -2 19 1 4 3 -2 6 -13 5 -11 0 -14 -3 -6 -6z"/>
<path d="M2555 130 c-3 -5 1 -10 9 -10 8 0 18 5 21 10 3 6 -1 10 -9 10 -8 0
-18 -4 -21 -10z"/>
<path d="M2625 130 c3 -6 -4 -10 -17 -10 -24 0 -56 -16 -48 -23 3 -2 22 -2 43
1 28 3 37 9 37 23 0 10 -5 19 -11 19 -5 0 -7 -4 -4 -10z"/>
<path d="M2810 110 c0 -8 50 -24 56 -18 2 2 -10 9 -26 15 -17 6 -30 8 -30 3z"/>
<path d="M2895 70 c3 -5 8 -10 11 -10 2 0 4 5 4 10 0 6 -5 10 -11 10 -5 0 -7
-4 -4 -10z"/>
<path d="M2930 44 c0 -8 6 -14 14 -14 8 0 23 -3 33 -7 15 -6 16 -4 5 9 -18 22
-52 30 -52 12z"/>
<path d="M1020 42 c0 -4 11 -9 25 -10 14 -1 25 3 25 8 0 6 -11 10 -25 10 -14
0 -25 -4 -25 -8z"/>
<path d="M2560 41 c0 -9 24 -21 43 -21 6 0 2 7 -9 15 -22 17 -34 19 -34 6z"/>
<path d="M1010 10 c0 -5 5 -10 11 -10 5 0 7 5 4 10 -3 6 -8 10 -11 10 -2 0 -4
-4 -4 -10z"/>
<path d="M2637 9 c7 -7 15 -10 18 -7 3 3 -2 9 -12 12 -14 6 -15 5 -6 -5z"/>
<path d="M3008 3 c6 -2 18 -2 25 0 6 3 1 5 -13 5 -14 0 -19 -2 -12 -5z"/>
</g>
</svg>
