<svg xmlns="http://www.w3.org/2000/svg" version="1.1" xmlns:xlink="http://www.w3.org/1999/xlink" xmlns:svgjs="http://svgjs.dev/svgjs" width="1500" height="795" viewBox="0 0 1500 795"><g transform="matrix(1,0,0,1,-0.9090909090909918,0.29313953778626)"><svg viewBox="0 0 396 210" data-background-color="#c8c8c8" preserveAspectRatio="xMidYMid meet" height="795" width="1500" xmlns="http://www.w3.org/2000/svg" xmlns:xlink="http://www.w3.org/1999/xlink"><g id="tight-bounds" transform="matrix(1,0,0,1,0.2400000000000091,-0.0774272773080611)"><svg viewBox="0 0 395.52 210.15486036276104" height="210.15486036276104" width="395.52"><g><svg viewBox="0 0 395.52 210.15486036276104" height="210.15486036276104" width="395.52"><g transform="matrix(1,0,0,1,0,129.88413469904424)"><svg viewBox="0 0 395.52 80.2707256637168" height="80.2707256637168" width="395.52"><g id="textblocktransform"><svg viewBox="0 0 395.52 80.2707256637168" height="80.2707256637168" width="395.52" id="textblock"><g><svg viewBox="0 0 395.52 80.2707256637168" height="80.2707256637168" width="395.52"><g transform="matrix(1,0,0,1,0,0)"><svg width="395.52" viewBox="2.53 -31.38 194.34 39.54" height="80.2707256637168" data-palette-color="#000000"><g class="wordmark-text-0" data-fill-palette-color="primary" id="text-0"><path d="M11.21-19.54L11.21-19.54Q6.21-19.54 6.32-16.38L6.32-16.38Q6.32-14.37 9.2-13.62L9.2-13.62Q10.17-13.33 11.29-13.1 12.41-12.87 13.74-12.56 15.06-12.24 16.44-11.72L16.44-11.72Q18.39-11.15 19.45-9.8 20.52-8.45 20.52-6.55L20.52-6.55Q20.52-3.1 17.59-1.21L17.59-1.21Q14.94 0.52 10.92 0.46L10.92 0.46Q7.93 0.46 5.06-0.57L5.06-0.57Q3.91-1.03 3.22-1.67 2.53-2.3 2.53-2.87 2.53-3.45 2.9-3.79 3.28-4.14 3.79-4.14 4.31-4.14 4.97-3.85 5.63-3.56 6.67-3.22L6.67-3.22Q9.31-2.24 10.92-2.24 12.53-2.24 13.51-2.44 14.48-2.64 15.29-3.1L15.29-3.1Q17.01-4.25 17.01-6.09L17.01-6.09Q17.01-7.41 16.18-8.13 15.34-8.85 14.05-9.25 12.76-9.66 11.49-9.94 10.23-10.23 8.97-10.52 7.7-10.8 6.55-11.21 5.4-11.61 4.6-12.3L4.6-12.3Q2.64-13.68 2.64-16.21L2.64-16.21Q2.64-19.43 5.34-20.86L5.34-20.86Q7.59-22.24 11.26-22.24L11.26-22.24Q15-22.24 17.24-21.15L17.24-21.15Q19.14-20.17 19.14-18.97L19.14-18.97Q19.14-18.51 18.76-18.22 18.39-17.93 17.93-17.93L17.93-17.93Q17.07-17.93 16.64-18.22 16.21-18.51 15.69-18.79 15.17-19.08 14.48-19.2L14.48-19.2Q13.22-19.54 11.21-19.54ZM44.54-20.11L44.54-1.61Q44.54-0.8 43.93-0.4 43.33 0 42.9 0 42.47 0 42.12-0.09 41.78-0.17 41.55-0.46L41.55-0.46Q40.97-0.86 40.97-1.61L40.97-1.61 40.97-3.62Q39.6-0.57 35.92 0.17L35.92 0.17Q34.77 0.46 33.45 0.46 32.12 0.46 30.69 0 29.25-0.46 28.22-1.49L28.22-1.49Q25.92-3.68 25.92-8.05L25.92-8.05 25.92-20.11Q25.92-20.92 26.43-21.38 26.95-21.84 27.64-21.84L27.64-21.84Q28.33-21.84 28.85-21.38 29.37-20.92 29.37-20.11L29.37-20.11 29.37-7.76Q29.37-4.66 30.63-3.45L30.63-3.45Q31.89-2.24 34.42-2.24L34.42-2.24Q38.68-2.24 40.28-5.69L40.28-5.69Q40.92-6.9 40.97-8.45L40.97-8.45 40.97-20.11Q40.97-20.92 41.55-21.38 42.12-21.84 42.81-21.84L42.81-21.84Q43.5-21.84 44.02-21.38 44.54-20.92 44.54-20.11L44.54-20.11ZM49.77-10.92L49.77-10.92Q49.77-15.69 52.47-18.85L52.47-18.85Q55.4-22.24 60.11-22.24L60.11-22.24Q64.13-22.24 66.26-20.57L66.26-20.57Q66.89-20.11 66.89-19.48 66.89-18.85 66.55-18.48 66.2-18.1 65.74-18.1 65.28-18.1 65.05-18.28L65.05-18.28Q62.87-19.54 60.45-19.48L60.45-19.48Q57.29-19.48 55.51-17.13L55.51-17.13Q53.5-14.71 53.5-10.92L53.5-10.92Q53.5-7.41 54.94-5L54.94-5Q56.66-2.24 60.45-2.24L60.45-2.24Q62.52-2.24 65.51-3.68L65.51-3.68Q66.32-4.14 66.89-3.45L66.89-3.45Q67.24-3.1 67.24-2.5 67.24-1.9 66.49-1.29 65.74-0.69 64.71-0.34L64.71-0.34Q62.18 0.52 59.82 0.49 57.47 0.46 55.57-0.4 53.67-1.26 52.41-2.93L52.41-2.93Q49.77-6.09 49.77-10.92ZM87.58-1.61L87.58-14.14Q87.58-16.78 86.08-18.28L86.08-18.28Q84.76-19.54 83.01-19.54 81.26-19.54 80.05-19.14 78.84-18.74 77.92-17.82L77.92-17.82Q75.97-15.98 75.97-12.59L75.97-12.59 75.97-1.61Q75.97-0.8 75.39-0.4 74.82 0 74.13 0L74.13 0Q73.44 0 72.98-0.43 72.52-0.86 72.52-1.61L72.52-1.61 72.52-29.66Q72.52-30.46 73.1-30.86 73.67-31.26 74.25-31.26L74.25-31.26Q74.94-31.26 75.45-30.89 75.97-30.52 75.97-29.66L75.97-29.66 75.97-18.1Q76.77-20.11 78.96-21.21L78.96-21.21Q80.97-22.24 82.95-22.24 84.94-22.24 86.31-21.75 87.69-21.26 88.84-20.34L88.84-20.34Q91.14-18.16 91.14-13.91L91.14-13.91 91.14-1.61Q91.14-0.8 90.54-0.4 89.94 0 89.3 0L89.3 0Q88.61 0 88.1-0.43 87.58-0.86 87.58-1.61L87.58-1.61ZM102-29.43L102-29.43Q102-28.51 101.37-27.93 100.74-27.36 99.59-27.36 98.44-27.36 97.81-27.93 97.17-28.51 97.17-29.43L97.17-29.43Q97.17-30.23 97.81-30.8 98.44-31.38 99.62-31.38 100.79-31.38 101.4-30.8 102-30.23 102-29.43ZM97.86-1.72L97.86-20Q97.86-20.86 98.44-21.35 99.01-21.84 99.47-21.84 99.93-21.84 100.22-21.7 100.51-21.55 100.79-21.26L100.79-21.26Q101.43-20.86 101.43-20L101.43-20 101.43-1.72Q101.43-0.86 100.85-0.43 100.28 0 99.59 0L99.59 0Q98.9 0 98.38-0.43 97.86-0.86 97.86-1.72L97.86-1.72ZM119.7-1.26L119.7-1.26Q119.7 0.46 115.62 0.46L115.62 0.46Q112.57 0.46 111.31-1.21L111.31-1.21Q109.93-2.99 109.82-7.07L109.82-7.07 109.82-19.14 107.29-19.14Q106.6-19.14 106.19-19.57 105.79-20 105.79-20.46L105.79-20.46Q105.79-20.92 106.14-21.38 106.48-21.84 107.29-21.84L107.29-21.84 110.04-21.84 110.27-28.05Q110.39-28.74 110.91-29.11 111.42-29.48 112-29.48 112.57-29.48 112.98-29.14 113.38-28.79 113.38-28.05L113.38-28.05 113.38-21.84 117.34-21.84Q118.03-21.84 118.41-21.38 118.78-20.92 118.78-20.46L118.78-20.46Q118.78-19.89 118.41-19.51 118.03-19.14 117.34-19.14L117.34-19.14 113.38-19.14 113.38-8.97Q113.38-4.71 113.67-3.82 113.95-2.93 114.59-2.59 115.22-2.24 116.14-2.24L116.14-2.24 118.38-2.41Q119.01-2.41 119.36-2.01 119.7-1.61 119.7-1.26Z" fill="#000000" data-fill-palette-color="primary"></path><path d="M131.13 7.82L131.13 7.82Q130.21 7.76 130.21 6.72L130.21 6.72Q130.21 6.32 130.5 5.92 130.79 5.52 131.65 5.52 132.51 5.52 133.2 5.4 133.89 5.29 134.24 4.83L134.24 4.83Q134.81 4.25 134.81 1.61L134.81 1.61 134.81-20Q134.81-20.86 135.33-21.35 135.85-21.84 136.36-21.84 136.88-21.84 137.23-21.7 137.57-21.55 137.8-21.26L137.8-21.26Q138.32-20.8 138.32-20L138.32-20 138.32 0.69Q138.32 2.76 138.15 4.2 137.97 5.63 137.34 6.55L137.34 6.55Q136.25 8.16 132.4 8.16L132.4 8.16 132.05 8.16Q131.77 8.16 131.45 8.05 131.13 7.93 131.13 7.82ZM138.95-29.43L138.95-29.43Q138.95-28.51 138.29-27.93 137.63-27.36 136.51-27.36 135.39-27.36 134.78-27.93 134.18-28.51 134.18-29.43L134.18-29.43Q134.18-30.23 134.78-30.8 135.39-31.38 136.54-31.38L136.54-31.38Q137.63-31.38 138.29-30.8 138.95-30.23 138.95-29.43ZM155.44-13.28L155.44-13.28Q156.65-13.28 157.86-13.22L157.86-13.22 157.86-15.06Q157.86-19.54 152.86-19.54L152.86-19.54Q150.61-19.54 149.58-19.14L149.58-19.14Q147.74-18.45 146.94-17.96 146.13-17.47 145.67-17.47 145.21-17.47 144.81-17.82 144.41-18.16 144.41-18.74L144.41-18.74Q144.41-19.2 144.92-19.66L144.92-19.66Q147.63-22.24 152.91-22.24L152.91-22.24Q159.01-22.24 160.73-18.16L160.73-18.16Q161.3-16.72 161.3-14.83L161.3-14.83 161.19-1.55Q161.19-0.8 160.67-0.4 160.15 0 159.52 0 158.89 0 158.37-0.34 157.86-0.69 157.86-1.49L157.86-1.49 157.86-3.56Q156.48-0.57 152.91 0.17L152.91 0.17Q151.82 0.46 150.44 0.46 149.06 0.46 147.71 0.06 146.36-0.34 145.33-1.21L145.33-1.21Q143.2-2.99 143.2-6.03L143.2-6.03Q143.2-13.28 155.44-13.28ZM157.86-8.74L157.86-10.69Q156.94-10.57 155.73-10.57 154.52-10.57 153.26-10.55 151.99-10.52 150.84-10.26 149.69-10 148.78-9.48L148.78-9.48Q146.82-8.45 146.71-6.09L146.71-6.09Q146.71-4.25 148.2-3.22L148.2-3.22Q149.35-2.3 151.48-2.24L151.48-2.24Q154.06-2.24 155.96-3.91L155.96-3.91Q157.68-5.52 157.86-8.74L157.86-8.74ZM172.05-29.43L172.05-29.43Q172.05-28.51 171.42-27.93 170.78-27.36 169.64-27.36 168.49-27.36 167.85-27.93 167.22-28.51 167.22-29.43L167.22-29.43Q167.22-30.23 167.85-30.8 168.49-31.38 169.66-31.38 170.84-31.38 171.45-30.8 172.05-30.23 172.05-29.43ZM167.91-1.72L167.91-20Q167.91-20.86 168.49-21.35 169.06-21.84 169.52-21.84 169.98-21.84 170.27-21.7 170.55-21.55 170.84-21.26L170.84-21.26Q171.47-20.86 171.47-20L171.47-20 171.47-1.72Q171.47-0.86 170.9-0.43 170.32 0 169.64 0L169.64 0Q168.95 0 168.43-0.43 167.91-0.86 167.91-1.72L167.91-1.72ZM178.25-1.61L178.25-20.17Q178.25-20.92 178.83-21.38 179.4-21.84 179.98-21.84L179.98-21.84Q181.18-21.84 181.53-20.92 181.87-20 181.7-18.16L181.7-18.16Q182.39-19.89 184.69-21.15L184.69-21.15Q186.7-22.24 188.68-22.24 190.67-22.24 192.05-21.75 193.43-21.26 194.58-20.23L194.58-20.23Q196.87-18.05 196.87-13.79L196.87-13.79 196.87-1.61Q196.87-0.8 196.27-0.4 195.67 0 195.03 0L195.03 0Q194.35 0 193.83-0.43 193.31-0.86 193.31-1.61L193.31-1.61 193.31-14.02Q193.31-16.72 191.82-18.16L191.82-18.16Q190.44-19.54 188.37-19.54L188.37-19.54Q185.61-19.54 183.66-17.93L183.66-17.93Q181.7-16.21 181.7-12.64L181.7-12.64 181.7-1.61Q181.7-0.8 181.13-0.4 180.55 0 179.86 0L179.86 0Q179.17 0 178.71-0.43 178.25-0.86 178.25-1.61L178.25-1.61Z" fill="#000000" data-fill-palette-color="primary"></path></g></svg></g></svg></g></svg></g></svg></g><g transform="matrix(1,0,0,1,143.45704188085813,0)"><svg viewBox="0 0 108.60591623828375 110.93414286725663" height="110.93414286725663" width="108.60591623828375"><g><svg xmlns="http://www.w3.org/2000/svg" viewBox="-0.00017773166311901845 0.00015841194107521495 501.2542619639245 511.9998415880589" x="0" y="0" height="110.93414286725663" width="108.60591623828375" class="icon-icon-0" data-fill-palette-color="accent" id="icon-0"><path d="M349.32 195.113c-18.922 0-34.316-15.391-34.316-34.312 0-18.918 15.395-34.313 34.316-34.313 18.922 0 34.313 15.395 34.313 34.313 0 18.922-15.391 34.313-34.313 34.312z m0-48.625c-7.898 0-14.316 6.422-14.316 14.313 0 7.895 6.422 14.313 14.316 14.312 7.891 0 14.313-6.418 14.313-14.312 0.004-7.891-6.418-14.313-14.313-14.313z m0 0" fill="#000000" data-fill-palette-color="accent"></path><path d="M151.934 195.113c-18.922 0-34.316-15.391-34.317-34.312 0-18.918 15.395-34.313 34.317-34.313s34.316 15.395 34.316 34.313c0 18.922-15.395 34.313-34.316 34.312z m0-48.625c-7.895 0-14.316 6.422-14.317 14.313 0 7.895 6.422 14.313 14.317 14.312 7.895 0 14.316-6.418 14.316-14.312 0-7.891-6.422-14.313-14.316-14.313z m0 0" fill="#000000" data-fill-palette-color="accent"></path><path d="M349.32 385.512c-18.922 0-34.316-15.395-34.316-34.313 0-18.922 15.395-34.313 34.316-34.312 18.922 0 34.313 15.391 34.313 34.312 0.004 18.918-15.391 34.313-34.313 34.313z m0-48.625c-7.898 0-14.316 6.418-14.316 14.312 0 7.891 6.422 14.313 14.316 14.313 7.891 0 14.313-6.422 14.313-14.313 0.004-7.895-6.418-14.313-14.313-14.312z m0 0" fill="#000000" data-fill-palette-color="accent"></path><path d="M151.934 385.512c-18.922 0-34.316-15.395-34.317-34.313 0-18.922 15.395-34.313 34.317-34.312s34.316 15.391 34.316 34.312c0 18.918-15.395 34.313-34.316 34.313z m0-48.625c-7.895 0-14.316 6.418-14.317 14.312 0 7.891 6.422 14.313 14.317 14.313 7.895 0 14.316-6.422 14.316-14.313 0-7.895-6.422-14.313-14.316-14.312z m0 0" fill="#000000" data-fill-palette-color="accent"></path><path d="M22.875 512c-0.59 0-1.184-0.051-1.781-0.16-4.762-0.859-8.227-5.004-8.227-9.84v-40.418c0-28.785 23.422-52.199 52.207-52.199h145.004v-111.754h-112.426c-38.406 0-69.648-31.242-69.648-69.645v-162.355c-1.793-3.762-12.59-12.676-23.176-19.074-3.844-2.32-5.664-6.918-4.461-11.243 1.207-4.324 5.145-7.313 9.633-7.312h34.367c34.504 0 62.574 28.066 62.574 62.562v123.809h96.637v-116.73c0-38.402 31.246-69.641 69.652-69.641h8.497c5.523 0 10 4.477 10 10 0 5.52-4.477 10-10 10h-8.497c-27.379 0-49.652 22.27-49.652 49.641v126.73c0 5.523-4.477 10-10 10h-116.637c-5.523 0-10-4.477-10-10v-133.808c0-23.469-19.098-42.563-42.574-42.563h-4.976c5.895 6.102 8.609 11.531 8.609 16.941v163.043c0 27.375 22.273 49.645 49.652 49.645h122.426c5.52 0 10 4.477 10 10v131.754c0 5.523-4.48 10-10 10h-155.004c-17.758 0-32.207 14.441-32.207 32.199v6.07c3.043-2.219 6.52-3.648 10.461-3.648h74.055c5.52 0 10 4.477 10 10 0 5.52-4.48 10-10 10h-72.988c-3.039 2.324-8.746 12.352-12.157 21.492-1.477 3.961-5.254 6.504-9.363 6.504z m0 0" fill="#000000" data-fill-palette-color="accent"></path><path d="M338.586 48c-0.66 0-1.309-0.07-1.961-0.199-0.641-0.129-1.27-0.32-1.867-0.571-0.602-0.25-1.18-0.559-1.731-0.918-0.539-0.363-1.051-0.781-1.519-1.242-0.461-0.461-0.883-0.969-1.242-1.519-0.359-0.539-0.668-1.121-0.918-1.731-0.25-0.598-0.441-1.23-0.571-1.871-0.129-0.637-0.199-1.297-0.199-1.949 0-0.648 0.07-1.309 0.199-1.957 0.129-0.633 0.32-1.262 0.571-1.871 0.25-0.602 0.559-1.18 0.918-1.723 0.359-0.547 0.781-1.059 1.242-1.519 0.469-0.457 0.977-0.879 1.519-1.25 0.551-0.359 1.129-0.668 1.731-0.918 0.598-0.25 1.227-0.441 1.867-0.571 1.293-0.262 2.621-0.262 3.91 0 0.641 0.129 1.273 0.32 1.871 0.571 0.602 0.25 1.18 0.559 1.731 0.918 0.539 0.371 1.051 0.793 1.519 1.25 0.461 0.461 0.879 0.973 1.239 1.519 0.359 0.543 0.672 1.121 0.921 1.723 0.25 0.609 0.438 1.238 0.571 1.871 0.129 0.648 0.188 1.309 0.187 1.957 0 0.652-0.059 1.313-0.187 1.949-0.133 0.641-0.32 1.273-0.571 1.871-0.25 0.609-0.563 1.191-0.921 1.731-0.359 0.551-0.777 1.059-1.239 1.519-0.469 0.461-0.98 0.879-1.519 1.242-0.551 0.359-1.133 0.668-1.731 0.918-0.602 0.25-1.23 0.441-1.871 0.571-0.648 0.129-1.301 0.199-1.949 0.199z m0 0" fill="#000000" data-fill-palette-color="accent"></path><path d="M491.254 484h-44.734c-28.785 0-52.207-23.414-52.208-52.199v-134.172h-96.636v116.73c0 38.398-31.246 69.641-69.653 69.641h-14.914c-5.52 0-10-4.477-10-10s4.48-10 10-10h14.914c27.379 0 49.652-22.27 49.653-49.641v-126.73c0-5.523 4.477-10 10-10h116.636c5.523 0 10 4.477 10 10v144.172c0 17.754 14.449 32.199 32.208 32.199h15.343c-5.895-6.102-8.609-11.531-8.609-16.941v-163.043c0-27.375-22.273-49.645-49.649-49.645h-122.425c-5.523 0-10-4.477-10-10v-131.754c0-5.52 4.477-10 10-10h155c17.758 0 32.207-14.441 32.207-32.195v-6.074c-3.043 2.219-6.516 3.652-10.461 3.652h-70.852c-5.523 0-10-4.48-10-10 0-5.523 4.477-10 10-10h69.785c3.039-2.324 8.746-12.355 12.157-21.492 1.691-4.535 6.383-7.207 11.144-6.348 4.762 0.859 8.227 5.004 8.227 9.84v40.422c0 28.781-23.422 52.195-52.207 52.195h-145v111.754h112.422c38.406 0 69.652 31.242 69.652 69.645v162.355c1.793 3.762 12.586 12.672 23.172 19.074 3.844 2.32 5.664 6.918 4.461 11.242-1.207 4.324-5.145 7.313-9.633 7.313z m0 0" fill="#000000" data-fill-palette-color="accent"></path><path d="M166.867 484c-2.641 0-5.211-1.063-7.07-2.93-1.859-1.859-2.93-4.43-2.93-7.07 0-2.629 1.07-5.211 2.93-7.07 2.32-2.32 5.77-3.391 9.019-2.731 0.641 0.129 1.273 0.32 1.872 0.571 0.609 0.25 1.191 0.559 1.73 0.918 0.551 0.363 1.059 0.781 1.52 1.242 1.859 1.859 2.93 4.441 2.929 7.07 0 2.641-1.07 5.211-2.929 7.07-0.461 0.461-0.969 0.879-1.52 1.25-0.539 0.359-1.121 0.668-1.73 0.918-0.602 0.25-1.23 0.441-1.872 0.571s-1.301 0.191-1.949 0.191z m0 0" fill="#000000" data-fill-palette-color="accent"></path></svg></g></svg></g><g></g></svg></g><defs></defs></svg><rect width="395.52" height="210.15486036276104" fill="none" stroke="none" visibility="hidden"></rect></g></svg></g></svg>